<mxfile host="Electron" modified="2024-06-12T10:15:35.662Z" agent="Mozilla/5.0 (X11; Linux x86_64) AppleWebKit/537.36 (KHTML, like Gecko) draw.io/24.5.3 Chrome/124.0.6367.207 Electron/30.0.6 Safari/537.36" etag="kpCkoTE7VLq6cptOCkgQ" version="24.5.3" type="device">
  <diagram name="Page-1" id="y-7d6MHpmnTL7HZYriRI">
    <mxGraphModel dx="1364" dy="1943" grid="1" gridSize="10" guides="1" tooltips="1" connect="1" arrows="1" fold="1" page="1" pageScale="1" pageWidth="850" pageHeight="1100" math="0" shadow="0">
      <root>
        <mxCell id="0" />
        <mxCell id="1" parent="0" />
        <mxCell id="Eo4oD8oEYdF83mtFnDHt-2" style="edgeStyle=orthogonalEdgeStyle;rounded=0;orthogonalLoop=1;jettySize=auto;html=1;entryX=0.5;entryY=1;entryDx=0;entryDy=0;endArrow=block;endFill=0;fontFamily=Titillium Web;strokeWidth=2;" parent="1" source="Eo4oD8oEYdF83mtFnDHt-14" target="Eo4oD8oEYdF83mtFnDHt-4" edge="1">
          <mxGeometry relative="1" as="geometry">
            <mxPoint x="430" y="220" as="sourcePoint" />
          </mxGeometry>
        </mxCell>
        <mxCell id="Eo4oD8oEYdF83mtFnDHt-3" style="edgeStyle=orthogonalEdgeStyle;rounded=0;orthogonalLoop=1;jettySize=auto;html=1;exitX=0.5;exitY=0;exitDx=0;exitDy=0;endArrow=block;endFill=0;fontFamily=Titillium Web;strokeWidth=2;" parent="1" source="Eo4oD8oEYdF83mtFnDHt-4" target="Eo4oD8oEYdF83mtFnDHt-24" edge="1">
          <mxGeometry relative="1" as="geometry">
            <mxPoint x="310" y="62.0344827586207" as="targetPoint" />
          </mxGeometry>
        </mxCell>
        <mxCell id="Eo4oD8oEYdF83mtFnDHt-4" value="&lt;font style=&quot;font-size: 20px;&quot;&gt;Entity&lt;/font&gt;" style="swimlane;fontStyle=1;align=center;verticalAlign=top;childLayout=stackLayout;horizontal=1;startSize=40;horizontalStack=0;resizeParent=1;resizeParentMax=0;resizeLast=0;collapsible=1;marginBottom=0;whiteSpace=wrap;html=1;fontFamily=Titillium Web;strokeWidth=2;" parent="1" vertex="1" collapsed="1">
          <mxGeometry x="330" y="80" width="100" height="40" as="geometry">
            <mxRectangle x="370" y="87" width="120" height="41" as="alternateBounds" />
          </mxGeometry>
        </mxCell>
        <mxCell id="Eo4oD8oEYdF83mtFnDHt-5" value="" style="line;strokeWidth=2;fillColor=none;align=left;verticalAlign=middle;spacingTop=-1;spacingLeft=3;spacingRight=3;rotatable=0;labelPosition=right;points=[];portConstraint=eastwest;strokeColor=inherit;fontFamily=Titillium Web;" parent="Eo4oD8oEYdF83mtFnDHt-4" vertex="1">
          <mxGeometry y="33" width="120" height="8" as="geometry" />
        </mxCell>
        <mxCell id="Eo4oD8oEYdF83mtFnDHt-14" value="&lt;font color=&quot;#ffffff&quot; style=&quot;font-size: 20px;&quot;&gt;BaseSystem&lt;/font&gt;" style="swimlane;fontStyle=1;align=center;verticalAlign=top;childLayout=stackLayout;horizontal=1;startSize=34;horizontalStack=0;resizeParent=1;resizeParentMax=0;resizeLast=0;collapsible=1;marginBottom=0;whiteSpace=wrap;html=1;fontFamily=Titillium Web;strokeWidth=2;strokeColor=#000000;fillColor=#2A4CDF;" parent="1" vertex="1">
          <mxGeometry x="295" y="170" width="170" height="76" as="geometry">
            <mxRectangle x="790" y="120" width="80" height="30" as="alternateBounds" />
          </mxGeometry>
        </mxCell>
        <mxCell id="Eo4oD8oEYdF83mtFnDHt-16" value="" style="line;strokeWidth=2;fillColor=none;align=left;verticalAlign=middle;spacingTop=-1;spacingLeft=3;spacingRight=3;rotatable=0;labelPosition=right;points=[];portConstraint=eastwest;strokeColor=inherit;fontFamily=Titillium Web;" parent="Eo4oD8oEYdF83mtFnDHt-14" vertex="1">
          <mxGeometry y="34" width="170" height="8" as="geometry" />
        </mxCell>
        <mxCell id="Eo4oD8oEYdF83mtFnDHt-17" value="&lt;font style=&quot;font-size: 16px;&quot;&gt;+ normalize()&lt;/font&gt;" style="text;strokeColor=none;fillColor=none;align=left;verticalAlign=top;spacingLeft=4;spacingRight=4;overflow=hidden;rotatable=0;points=[[0,0.5],[1,0.5]];portConstraint=eastwest;whiteSpace=wrap;html=1;fontFamily=Titillium Web;" parent="Eo4oD8oEYdF83mtFnDHt-14" vertex="1">
          <mxGeometry y="42" width="170" height="34" as="geometry" />
        </mxCell>
        <mxCell id="Eo4oD8oEYdF83mtFnDHt-24" value="&lt;font style=&quot;font-size: 20px;&quot;&gt;BaseSection&lt;/font&gt;" style="swimlane;fontStyle=1;align=center;verticalAlign=top;childLayout=stackLayout;horizontal=1;startSize=40;horizontalStack=0;resizeParent=1;resizeParentMax=0;resizeLast=0;collapsible=1;marginBottom=0;whiteSpace=wrap;html=1;fontFamily=Titillium Web;strokeWidth=2;" parent="1" vertex="1" collapsed="1">
          <mxGeometry x="320" width="120" height="40" as="geometry">
            <mxRectangle x="160" width="160" height="176" as="alternateBounds" />
          </mxGeometry>
        </mxCell>
        <mxCell id="Eo4oD8oEYdF83mtFnDHt-25" value="&lt;div style=&quot;font-size: 16px;&quot;&gt;&lt;font style=&quot;font-size: 16px;&quot;&gt;+ name: str&lt;/font&gt;&lt;/div&gt;&lt;div style=&quot;font-size: 16px;&quot;&gt;&lt;font style=&quot;font-size: 16px;&quot;&gt;+ datetime: Datetime&lt;/font&gt;&lt;/div&gt;&lt;div style=&quot;font-size: 16px;&quot;&gt;&lt;font style=&quot;font-size: 16px;&quot;&gt;+ lab_id: str&lt;/font&gt;&lt;/div&gt;&lt;div style=&quot;font-size: 16px;&quot;&gt;&lt;font style=&quot;font-size: 16px;&quot;&gt;+ description: str&lt;/font&gt;&lt;br&gt;&lt;/div&gt;" style="text;strokeColor=none;fillColor=none;align=left;verticalAlign=top;spacingLeft=4;spacingRight=4;overflow=hidden;rotatable=0;points=[[0,0.5],[1,0.5]];portConstraint=eastwest;whiteSpace=wrap;html=1;fontFamily=Titillium Web;" parent="Eo4oD8oEYdF83mtFnDHt-24" vertex="1">
          <mxGeometry y="40" width="160" height="94" as="geometry" />
        </mxCell>
        <mxCell id="Eo4oD8oEYdF83mtFnDHt-26" value="" style="line;strokeWidth=2;fillColor=none;align=left;verticalAlign=middle;spacingTop=-1;spacingLeft=3;spacingRight=3;rotatable=0;labelPosition=right;points=[];portConstraint=eastwest;strokeColor=inherit;fontFamily=Titillium Web;" parent="Eo4oD8oEYdF83mtFnDHt-24" vertex="1">
          <mxGeometry y="134" width="160" height="8" as="geometry" />
        </mxCell>
        <mxCell id="Eo4oD8oEYdF83mtFnDHt-27" value="&lt;font style=&quot;font-size: 16px;&quot;&gt;+ normalize()&lt;/font&gt;" style="text;strokeColor=none;fillColor=none;align=left;verticalAlign=top;spacingLeft=4;spacingRight=4;overflow=hidden;rotatable=0;points=[[0,0.5],[1,0.5]];portConstraint=eastwest;whiteSpace=wrap;html=1;fontFamily=Titillium Web;" parent="Eo4oD8oEYdF83mtFnDHt-24" vertex="1">
          <mxGeometry y="142" width="160" height="34" as="geometry" />
        </mxCell>
        <mxCell id="Eo4oD8oEYdF83mtFnDHt-34" value="" style="endArrow=none;html=1;rounded=0;strokeWidth=2;endFill=0;startArrow=block;startFill=0;" parent="1" edge="1">
          <mxGeometry width="50" height="50" relative="1" as="geometry">
            <mxPoint x="50" y="430" as="sourcePoint" />
            <mxPoint x="120" y="430" as="targetPoint" />
          </mxGeometry>
        </mxCell>
        <mxCell id="Eo4oD8oEYdF83mtFnDHt-35" value="&lt;font style=&quot;font-size: 14px;&quot; face=&quot;Titillium Web&quot;&gt;inheriting from&lt;/font&gt;" style="text;html=1;align=center;verticalAlign=middle;whiteSpace=wrap;rounded=0;" parent="1" vertex="1">
          <mxGeometry x="120" y="420" width="90" height="20" as="geometry" />
        </mxCell>
        <mxCell id="Eo4oD8oEYdF83mtFnDHt-36" value="" style="endArrow=none;html=1;rounded=0;strokeWidth=2;endFill=0;startArrow=diamond;startFill=1;" parent="1" edge="1">
          <mxGeometry width="50" height="50" relative="1" as="geometry">
            <mxPoint x="50" y="450" as="sourcePoint" />
            <mxPoint x="120" y="450" as="targetPoint" />
          </mxGeometry>
        </mxCell>
        <mxCell id="Eo4oD8oEYdF83mtFnDHt-37" value="&lt;font style=&quot;font-size: 14px;&quot; face=&quot;Titillium Web&quot;&gt;contained in&lt;/font&gt;" style="text;html=1;align=center;verticalAlign=middle;whiteSpace=wrap;rounded=0;" parent="1" vertex="1">
          <mxGeometry x="120" y="440" width="80" height="20" as="geometry" />
        </mxCell>
        <mxCell id="QpJSEOgoIcLiSVygGloo-9" style="edgeStyle=orthogonalEdgeStyle;rounded=0;orthogonalLoop=1;jettySize=auto;html=1;strokeWidth=2;endArrow=block;endFill=0;" edge="1" parent="1" source="QpJSEOgoIcLiSVygGloo-5" target="Eo4oD8oEYdF83mtFnDHt-14">
          <mxGeometry relative="1" as="geometry">
            <Array as="points">
              <mxPoint x="353" y="300" />
              <mxPoint x="380" y="300" />
            </Array>
          </mxGeometry>
        </mxCell>
        <mxCell id="QpJSEOgoIcLiSVygGloo-11" value="&lt;font style=&quot;font-size: 14px;&quot; face=&quot;Titillium Web&quot;&gt;sub_systems(repeats)&lt;/font&gt;" style="edgeStyle=orthogonalEdgeStyle;rounded=0;orthogonalLoop=1;jettySize=auto;html=1;exitX=0;exitY=0.25;exitDx=0;exitDy=0;entryX=0;entryY=0.5;entryDx=0;entryDy=0;strokeWidth=2;endArrow=diamond;endFill=1;" edge="1" parent="1" source="QpJSEOgoIcLiSVygGloo-5">
          <mxGeometry relative="1" as="geometry">
            <mxPoint x="295" y="222" as="targetPoint" />
            <Array as="points">
              <mxPoint x="235" y="368" />
              <mxPoint x="235" y="222" />
            </Array>
          </mxGeometry>
        </mxCell>
        <mxCell id="QpJSEOgoIcLiSVygGloo-5" value="&lt;font color=&quot;#ffffff&quot; style=&quot;font-size: 20px;&quot;&gt;System&lt;/font&gt;" style="swimlane;fontStyle=1;align=center;verticalAlign=top;childLayout=stackLayout;horizontal=1;startSize=34;horizontalStack=0;resizeParent=1;resizeParentMax=0;resizeLast=0;collapsible=1;marginBottom=0;whiteSpace=wrap;html=1;fontFamily=Titillium Web;strokeWidth=2;strokeColor=#000000;fillColor=#2A4CDF;" vertex="1" parent="1">
          <mxGeometry x="255" y="340" width="195" height="112" as="geometry">
            <mxRectangle x="790" y="120" width="80" height="30" as="alternateBounds" />
          </mxGeometry>
        </mxCell>
        <mxCell id="QpJSEOgoIcLiSVygGloo-6" value="&lt;div style=&quot;font-size: 16px;&quot;&gt;+ sub_systems: &lt;b&gt;BaseSystem&lt;/b&gt;&lt;/div&gt;" style="text;strokeColor=none;fillColor=none;align=left;verticalAlign=top;spacingLeft=4;spacingRight=4;overflow=hidden;rotatable=0;points=[[0,0.5],[1,0.5]];portConstraint=eastwest;whiteSpace=wrap;html=1;fontFamily=Titillium Web;" vertex="1" parent="QpJSEOgoIcLiSVygGloo-5">
          <mxGeometry y="34" width="195" height="36" as="geometry" />
        </mxCell>
        <mxCell id="QpJSEOgoIcLiSVygGloo-7" value="" style="line;strokeWidth=2;fillColor=none;align=left;verticalAlign=middle;spacingTop=-1;spacingLeft=3;spacingRight=3;rotatable=0;labelPosition=right;points=[];portConstraint=eastwest;strokeColor=inherit;fontFamily=Titillium Web;" vertex="1" parent="QpJSEOgoIcLiSVygGloo-5">
          <mxGeometry y="70" width="195" height="8" as="geometry" />
        </mxCell>
        <mxCell id="QpJSEOgoIcLiSVygGloo-8" value="&lt;font style=&quot;font-size: 16px;&quot;&gt;+ normalize()&lt;/font&gt;" style="text;strokeColor=none;fillColor=none;align=left;verticalAlign=top;spacingLeft=4;spacingRight=4;overflow=hidden;rotatable=0;points=[[0,0.5],[1,0.5]];portConstraint=eastwest;whiteSpace=wrap;html=1;fontFamily=Titillium Web;" vertex="1" parent="QpJSEOgoIcLiSVygGloo-5">
          <mxGeometry y="78" width="195" height="34" as="geometry" />
        </mxCell>
        <mxCell id="QpJSEOgoIcLiSVygGloo-16" style="edgeStyle=orthogonalEdgeStyle;rounded=0;orthogonalLoop=1;jettySize=auto;html=1;strokeWidth=2;endArrow=block;endFill=0;" edge="1" parent="1" source="QpJSEOgoIcLiSVygGloo-12" target="Eo4oD8oEYdF83mtFnDHt-14">
          <mxGeometry relative="1" as="geometry">
            <Array as="points">
              <mxPoint x="645" y="300" />
              <mxPoint x="380" y="300" />
            </Array>
          </mxGeometry>
        </mxCell>
        <mxCell id="QpJSEOgoIcLiSVygGloo-12" value="&lt;font color=&quot;#ffffff&quot; style=&quot;font-size: 20px;&quot;&gt;SystemReference&lt;/font&gt;" style="swimlane;fontStyle=1;align=center;verticalAlign=top;childLayout=stackLayout;horizontal=1;startSize=34;horizontalStack=0;resizeParent=1;resizeParentMax=0;resizeLast=0;collapsible=1;marginBottom=0;whiteSpace=wrap;html=1;fontFamily=Titillium Web;strokeWidth=2;strokeColor=#000000;fillColor=#2A4CDF;" vertex="1" parent="1">
          <mxGeometry x="510" y="340" width="270" height="112" as="geometry">
            <mxRectangle x="790" y="120" width="80" height="30" as="alternateBounds" />
          </mxGeometry>
        </mxCell>
        <mxCell id="QpJSEOgoIcLiSVygGloo-13" value="&lt;div style=&quot;font-size: 16px;&quot;&gt;+ system_ref: &lt;b&gt;Reference(BaseSystem)&lt;/b&gt;&lt;/div&gt;" style="text;strokeColor=none;fillColor=none;align=left;verticalAlign=top;spacingLeft=4;spacingRight=4;overflow=hidden;rotatable=0;points=[[0,0.5],[1,0.5]];portConstraint=eastwest;whiteSpace=wrap;html=1;fontFamily=Titillium Web;" vertex="1" parent="QpJSEOgoIcLiSVygGloo-12">
          <mxGeometry y="34" width="270" height="36" as="geometry" />
        </mxCell>
        <mxCell id="QpJSEOgoIcLiSVygGloo-14" value="" style="line;strokeWidth=2;fillColor=none;align=left;verticalAlign=middle;spacingTop=-1;spacingLeft=3;spacingRight=3;rotatable=0;labelPosition=right;points=[];portConstraint=eastwest;strokeColor=inherit;fontFamily=Titillium Web;" vertex="1" parent="QpJSEOgoIcLiSVygGloo-12">
          <mxGeometry y="70" width="270" height="8" as="geometry" />
        </mxCell>
        <mxCell id="QpJSEOgoIcLiSVygGloo-15" value="&lt;font style=&quot;font-size: 16px;&quot;&gt;+ normalize()&lt;/font&gt;" style="text;strokeColor=none;fillColor=none;align=left;verticalAlign=top;spacingLeft=4;spacingRight=4;overflow=hidden;rotatable=0;points=[[0,0.5],[1,0.5]];portConstraint=eastwest;whiteSpace=wrap;html=1;fontFamily=Titillium Web;" vertex="1" parent="QpJSEOgoIcLiSVygGloo-12">
          <mxGeometry y="78" width="270" height="34" as="geometry" />
        </mxCell>
        <mxCell id="QpJSEOgoIcLiSVygGloo-17" style="edgeStyle=orthogonalEdgeStyle;rounded=0;orthogonalLoop=1;jettySize=auto;html=1;exitX=1;exitY=0.5;exitDx=0;exitDy=0;entryX=1;entryY=0.25;entryDx=0;entryDy=0;strokeWidth=2;" edge="1" parent="1" source="QpJSEOgoIcLiSVygGloo-13" target="Eo4oD8oEYdF83mtFnDHt-14">
          <mxGeometry relative="1" as="geometry" />
        </mxCell>
        <mxCell id="QpJSEOgoIcLiSVygGloo-18" value="" style="endArrow=none;html=1;rounded=0;strokeWidth=2;endFill=0;startArrow=classic;startFill=1;" edge="1" parent="1">
          <mxGeometry width="50" height="50" relative="1" as="geometry">
            <mxPoint x="50" y="471" as="sourcePoint" />
            <mxPoint x="120" y="471" as="targetPoint" />
          </mxGeometry>
        </mxCell>
        <mxCell id="QpJSEOgoIcLiSVygGloo-19" value="&lt;font style=&quot;font-size: 14px;&quot; face=&quot;Titillium Web&quot;&gt;referencing&lt;/font&gt;" style="text;html=1;align=center;verticalAlign=middle;whiteSpace=wrap;rounded=0;" vertex="1" parent="1">
          <mxGeometry x="120" y="461" width="80" height="20" as="geometry" />
        </mxCell>
      </root>
    </mxGraphModel>
  </diagram>
</mxfile>
